<svg preserveAspectRatio="none" width="100%" height="100%" overflow="visible" style="display: block;" viewBox="0 0 272.656 230.154" fill="none" xmlns="http://www.w3.org/2000/svg">
<g id="Group">
<g id="Group_2">
<path id="Vector" d="M200.381 91.9903C203.267 143.895 163.515 180.52 113.028 177.629C56.3169 174.381 13.7726 126.121 10.5248 69.409C9.01994 43.1317 17.0672 19.593 31.6522 1.81256C18.983 17.6408 12.0249 38.4197 13.3509 61.5741C16.1641 110.699 49.1726 152.279 98.2959 155.093C136.114 157.258 170.405 132.09 168.095 90.1414C171.997 92.917 177.873 94.8893 184.363 95.261C190.953 95.6385 196.784 94.4037 200.381 91.9903Z" fill="var(--fill-0, #F05654)"/>
</g>
<path id="Vector_2" d="M263.178 89.4866C259.678 91.7619 254.153 93.0344 247.858 92.6739C241.462 92.3076 235.628 90.45 231.844 87.6922C228.352 90.0335 222.803 91.2391 216.408 90.8728C210.013 90.5066 204.291 88.6554 200.505 85.8975C197.015 88.2388 191.355 89.4381 184.959 89.0718C178.66 88.7111 172.956 86.7953 169.17 84.1029L195.793 48.4662C201.226 53.0138 207.909 55.7269 214.631 56.1119C221.229 56.4897 227.556 54.5965 232.462 50.78L263.178 89.4866Z" fill="var(--fill-0, #BFD5E0)"/>
<path id="Vector_3" d="M228.969 46.3773C225.07 49.437 219.985 51.1108 214.326 50.7868C208.544 50.4556 203.127 48.0941 198.804 44.4347L207.16 33.252C209.953 29.5139 215.854 29.8518 219.095 33.9355L228.969 46.3773Z" fill="var(--fill-0, #1A3849)"/>
<path id="Vector_4" d="M232.669 93.8396C236.126 155.698 190.915 203.78 127.76 200.163C63.4596 196.481 11.381 141.546 7.69867 77.2457C6.0149 47.8442 15.1514 21.5472 31.6521 1.81275C17.0672 19.5933 9.01983 43.132 10.5247 69.4093C13.7725 126.122 56.3168 174.381 113.028 177.629C163.515 180.52 203.266 143.895 200.381 91.9907C204.281 94.8332 210.177 96.7396 216.765 97.1169C223.355 97.4943 229.072 96.2529 232.669 93.8396Z" fill="var(--fill-0, #C63634)"/>
<path id="Vector_5" d="M264.956 95.6884C268.987 167.503 218.316 227.042 142.491 222.699C70.6036 218.582 8.98924 156.968 4.87239 85.0804C3.00979 52.556 13.2355 23.4994 31.652 1.81263C15.1514 21.5471 6.01488 47.8441 7.69864 77.2456C11.381 141.546 63.4594 196.481 127.76 200.163C190.915 203.78 236.126 155.698 232.669 93.8395C236.569 96.682 242.579 98.595 249.169 98.9723C255.656 99.3438 261.347 98.0339 264.954 95.6883L264.956 95.6884Z" fill="var(--fill-0, #A42726)"/>
</g>
</svg>
