<svg preserveAspectRatio="none" width="100%" height="100%" overflow="visible" style="display: block;" viewBox="0 0 32.8213 20.0047" fill="none" xmlns="http://www.w3.org/2000/svg">
<path id="&#226;&#128;&#156;" d="M24.8872 20.0047C22.4007 20.0047 20.615 19.3266 19.53 17.9703C18.4902 16.6141 17.9703 14.8961 17.9703 12.8166C17.9703 11.5959 18.2416 10.1719 18.7841 8.54437C19.3718 6.87167 20.2759 5.26677 21.4966 3.72968C22.7172 2.14739 24.2543 0.904166 26.1078 0L32.0753 3.45844C31.0355 3.91052 30.0183 4.43042 29.0238 5.01812C28.0292 5.60583 27.2832 6.30656 26.7859 7.12031H27.125C27.9388 7.12031 28.7751 7.32375 29.6341 7.73062C30.5382 8.1375 31.2842 8.77041 31.8719 9.62937C32.5048 10.4431 32.8213 11.5281 32.8213 12.8844C32.8213 13.8337 32.55 14.8735 32.0075 16.0037C31.5102 17.0887 30.6739 18.0381 29.4984 18.8519C28.3682 19.6204 26.8311 20.0047 24.8872 20.0047ZM6.91688 20.0047C4.43042 20.0047 2.64469 19.3266 1.55969 17.9703C0.519896 16.6141 0 14.8961 0 12.8166C0 11.5959 0.27125 10.1719 0.81375 8.54437C1.40146 6.87167 2.30562 5.26677 3.52625 3.72968C4.74688 2.14739 6.28396 0.904166 8.1375 0L14.105 3.45844C13.0652 3.91052 12.048 4.43042 11.0534 5.01812C10.0589 5.60583 9.31292 6.30656 8.81563 7.12031H9.15469C9.96844 7.12031 10.8048 7.32375 11.6637 7.73062C12.5679 8.1375 13.3139 8.77041 13.9016 9.62937C14.5345 10.4431 14.8509 11.5281 14.8509 12.8844C14.8509 13.8337 14.5797 14.8735 14.0372 16.0037C13.5399 17.0887 12.7035 18.0381 11.5281 18.8519C10.3979 19.6204 8.86083 20.0047 6.91688 20.0047Z" fill="url(#paint0_linear_0_16)"/>
<defs>
<linearGradient id="paint0_linear_0_16" x1="16.4106" y1="1.62205" x2="16.4106" y2="20.1184" gradientUnits="userSpaceOnUse">
<stop offset="0.13" stop-color="#614794"/>
<stop offset="0.53" stop-color="#993356"/>
<stop offset="0.84" stop-color="#C92323"/>
</linearGradient>
</defs>
</svg>
