<svg preserveAspectRatio="none" width="100%" height="100%" overflow="visible" style="display: block;" viewBox="0 0 4883 229" fill="none" xmlns="http://www.w3.org/2000/svg">
<path id="Vector" d="M0 157.253L135.639 131.012C271.278 105.163 542.556 52.0901 813.833 62.9013C1085.11 73.7124 1356.39 146.442 1627.67 157.253C1898.94 168.064 2170.22 114.991 2441.5 89.1429C2712.78 62.9013 2984.06 62.9013 3255.33 68.1103C3526.61 73.7124 3797.89 83.5408 4069.17 73.4176C4340.44 62.9013 4611.72 31.4506 4747.36 15.7253L4883 0V229H4747.36C4611.72 229 4340.44 229 4069.17 229C3797.89 229 3526.61 229 3255.33 229C2984.06 229 2712.78 229 2441.5 229C2170.22 229 1898.94 229 1627.67 229C1356.39 229 1085.11 229 813.833 229C542.556 229 271.278 229 135.639 229H0L0 157.253Z" fill="var(--fill-0, white)"/>
</svg>
