<svg width="111" height="111" viewBox="0 0 111 111" fill="none" xmlns="http://www.w3.org/2000/svg" role="img" aria-hidden="true">

<g id="VECTOR 2">
<path id="Vector" d="M2.45406 71.4104C2.00343 71.2404 1.597 70.9708 1.26507 70.6218C0.481565 69.7981 0.19395 68.6204 0.509504 67.5282L0.621923 67.1391C1.25469 64.949 3.62076 63.7639 5.75364 64.5688L82.1816 93.4106C85.6543 94.7211 85.3574 99.7287 81.7542 100.62C81.0104 100.804 80.2282 100.757 79.5114 100.487L2.45406 71.4104Z" fill="url(#paint0_linear_0_14)"/>
<path id="Vector_2" d="M6.90091 57.9424C5.05589 57.2462 4.0553 55.2493 4.60205 53.3546C5.21427 51.233 7.50603 50.0847 9.57197 50.8644L95.9078 83.4472C97.7521 84.1432 98.7521 86.1395 98.2053 88.0334C97.5931 90.1537 95.3027 91.3013 93.2379 90.5221L6.90091 57.9424Z" fill="url(#paint1_linear_0_14)"/>
<path id="Vector_3" d="M103.791 56.1313C105.636 56.8275 106.637 58.8244 106.09 60.7191C105.478 62.8407 103.186 63.989 101.12 63.2093L14.7851 30.627C12.9401 29.9307 11.9396 27.9338 12.4863 26.0392C13.0985 23.9175 15.3903 22.7692 17.4563 23.5489L103.791 56.1313Z" fill="url(#paint2_linear_0_14)"/>
<path id="Vector_4" d="M10.843 44.2846C8.99802 43.5884 7.99743 41.5916 8.54418 39.6969C9.15641 37.5753 11.4482 36.427 13.5141 37.2066L99.8499 69.7894C101.694 70.4854 102.694 72.4817 102.147 74.3756C101.535 76.496 99.2448 77.6435 97.18 76.8643L10.843 44.2846Z" fill="url(#paint3_linear_0_14)"/>
<path id="Vector_5" d="M39.1923 110.397C38.1382 109.291 39.3095 107.522 40.7387 108.061C42.0582 108.559 41.9457 110.461 40.5768 110.8C40.0764 110.924 39.5481 110.77 39.1923 110.397Z" fill="url(#paint4_linear_0_14)"/>
<path id="Vector_6" d="M25.137 95.1127C24.6059 94.9123 24.1267 94.5949 23.735 94.184C20.9595 91.2728 24.0445 86.6157 27.8077 88.0358L57.9318 99.4038C61.4053 100.715 61.1082 105.723 57.5041 106.614C56.7602 106.798 55.978 106.752 55.261 106.481L25.137 95.1127Z" fill="url(#paint5_linear_0_14)"/>
<path id="Vector_7" d="M91.5175 21.208C92.0486 21.4084 92.5277 21.7259 92.9194 22.1367C95.6949 25.0479 92.61 29.705 88.8468 28.2849L48.1938 12.9436C44.7203 11.6328 45.0174 6.62417 48.6215 5.73323C49.3654 5.54933 50.1476 5.59573 50.8646 5.8663L91.5175 21.208Z" fill="url(#paint6_linear_0_14)"/>
<path id="Vector_8" d="M69.8376 5.96728C67.1587 4.95627 67.3879 1.09341 70.1675 0.406245C71.1837 0.155031 72.2565 0.46754 72.9789 1.22514C75.1197 3.47056 72.7402 7.06271 69.8376 5.96728Z" fill="url(#paint7_linear_0_14)"/>
<path id="Vector_9" d="M107.735 42.4743C109.579 43.1702 110.58 45.1656 110.034 47.0596C109.423 49.1818 107.131 50.331 105.065 49.5512L16.624 16.1754C15.9667 15.9274 15.6099 15.2162 15.8042 14.541C15.9375 14.0774 16.3083 13.7204 16.7765 13.6047L22.1924 12.2661C24.3554 11.7315 26.6297 11.8665 28.7143 12.6532L107.735 42.4743Z" fill="url(#paint8_linear_0_14)"/>
</g>
<defs>
<linearGradient id="paint0_linear_0_14" x1="46.7767" y1="66.1424" x2="46.7767" y2="101.117" gradientUnits="userSpaceOnUse">
<stop stop-color="#993356"/>
<stop offset="0.84" stop-color="#C92323"/>
</linearGradient>
<linearGradient id="paint1_linear_0_14" x1="51.4038" y1="52.8677" x2="51.4038" y2="92.2098" gradientUnits="userSpaceOnUse">
<stop stop-color="#993356"/>
<stop offset="0.84" stop-color="#C92323"/>
</linearGradient>
<linearGradient id="paint2_linear_0_14" x1="59.288" y1="25.5525" x2="59.288" y2="64.8981" gradientUnits="userSpaceOnUse">
<stop stop-color="#993356"/>
<stop offset="0.84" stop-color="#C92323"/>
</linearGradient>
<linearGradient id="paint3_linear_0_14" x1="55.3459" y1="39.2099" x2="55.3459" y2="78.552" gradientUnits="userSpaceOnUse">
<stop stop-color="#993356"/>
<stop offset="0.84" stop-color="#C92323"/>
</linearGradient>
<linearGradient id="paint4_linear_0_14" x1="39.9541" y1="106.258" x2="39.9541" y2="111.029" gradientUnits="userSpaceOnUse">
<stop stop-color="#993356"/>
<stop offset="0.84" stop-color="#C92323"/>
</linearGradient>
<linearGradient id="paint5_linear_0_14" x1="40.7988" y1="84.1842" x2="40.7988" y2="107.037" gradientUnits="userSpaceOnUse">
<stop stop-color="#993356"/>
<stop offset="0.84" stop-color="#C92323"/>
</linearGradient>
<linearGradient id="paint6_linear_0_14" x1="70.5912" y1="7.77712" x2="70.5912" y2="34.3037" gradientUnits="userSpaceOnUse">
<stop stop-color="#993356"/>
<stop offset="0.84" stop-color="#C92323"/>
</linearGradient>
<linearGradient id="paint7_linear_0_14" x1="71.436" y1="0.850118" x2="71.436" y2="10.5441" gradientUnits="userSpaceOnUse">
<stop stop-color="#993356"/>
<stop offset="0.84" stop-color="#C92323"/>
</linearGradient>
<linearGradient id="paint8_linear_0_14" x1="63.2302" y1="14.6524" x2="63.2302" y2="51.2233" gradientUnits="userSpaceOnUse">
<stop stop-color="#993356"/>
<stop offset="0.84" stop-color="#C92323"/>
</linearGradient>
</defs>

<g id="VECTOR 2">
<path id="Vector" d="M1.76939 71.1521L0 69.2917L1.79603 63.0753L93.5534 97.702L80.6121 100.902L1.76939 71.1521Z" fill="url(#paint0_linear_0_4)"/>
<path id="Vector_2" d="M3.63392 56.7096L5.73816 49.4175L99.1736 84.6797L97.0694 91.9679L3.63392 56.7096Z" fill="url(#paint1_linear_0_4)"/>
<path id="Vector_3" d="M107.058 57.3642L104.954 64.6562L11.5182 29.3941L13.6224 22.102L107.058 57.3642Z" fill="url(#paint2_linear_0_4)"/>
<path id="Vector_4" d="M7.57605 43.0518L9.6803 35.7598L103.116 71.0219L101.011 78.3102L7.57605 43.0518Z" fill="url(#paint3_linear_0_4)"/>
<path id="Vector_5" d="M34.8476 105.84L45.0606 109.691L39.7676 111L34.8476 105.84Z" fill="url(#paint4_linear_0_4)"/>
<path id="Vector_6" d="M24.3301 94.8082L12.2906 82.1801L69.307 103.696L56.3619 106.897L24.3301 94.8082Z" fill="url(#paint5_linear_0_4)"/>
<path id="Vector_7" d="M92.3243 21.5125L104.364 34.1406L36.8186 8.65094L49.7637 5.45086L92.3243 21.5125Z" fill="url(#paint6_linear_0_4)"/>
<path id="Vector_8" d="M61.065 2.65653L71.8108 0L81.8069 10.4845L61.065 2.65653Z" fill="url(#paint7_linear_0_4)"/>
<path id="Vector_9" d="M111 43.7064L108.9 50.9984L15.4603 15.7363L16.0197 13.7917L25.5135 11.4453L111 43.7064Z" fill="url(#paint8_linear_0_4)"/>
</g>
<defs>
<linearGradient id="paint0_linear_0_4" x1="46.7767" y1="70.5936" x2="46.7767" y2="100.025" gradientUnits="userSpaceOnUse">
<stop stop-color="#09A699"/>
<stop offset="1" stop-color="#614794"/>
</linearGradient>
<linearGradient id="paint1_linear_0_4" x1="51.4038" y1="57.8747" x2="51.4038" y2="90.9816" gradientUnits="userSpaceOnUse">
<stop stop-color="#09A699"/>
<stop offset="1" stop-color="#614794"/>
</linearGradient>
<linearGradient id="paint2_linear_0_4" x1="59.288" y1="30.5599" x2="59.288" y2="63.6698" gradientUnits="userSpaceOnUse">
<stop stop-color="#09A699"/>
<stop offset="1" stop-color="#614794"/>
</linearGradient>
<linearGradient id="paint3_linear_0_4" x1="55.3459" y1="44.2169" x2="55.3459" y2="77.3239" gradientUnits="userSpaceOnUse">
<stop stop-color="#09A699"/>
<stop offset="1" stop-color="#614794"/>
</linearGradient>
<linearGradient id="paint4_linear_0_4" x1="39.9541" y1="106.866" x2="39.9541" y2="110.88" gradientUnits="userSpaceOnUse">
<stop stop-color="#09A699"/>
<stop offset="1" stop-color="#614794"/>
</linearGradient>
<linearGradient id="paint5_linear_0_4" x1="40.7988" y1="87.0927" x2="40.7988" y2="106.324" gradientUnits="userSpaceOnUse">
<stop stop-color="#09A699"/>
<stop offset="1" stop-color="#614794"/>
</linearGradient>
<linearGradient id="paint6_linear_0_4" x1="70.5912" y1="11.1531" x2="70.5912" y2="33.4756" gradientUnits="userSpaceOnUse">
<stop stop-color="#09A699"/>
<stop offset="1" stop-color="#614794"/>
</linearGradient>
<linearGradient id="paint7_linear_0_4" x1="71.436" y1="2.08386" x2="71.436" y2="10.2415" gradientUnits="userSpaceOnUse">
<stop stop-color="#09A699"/>
<stop offset="1" stop-color="#614794"/>
</linearGradient>
<linearGradient id="paint8_linear_0_4" x1="63.2302" y1="19.3067" x2="63.2302" y2="50.0816" gradientUnits="userSpaceOnUse">
<stop stop-color="#09A699"/>
<stop offset="1" stop-color="#614794"/>
</linearGradient>
</defs>
</svg>
